<svg id="Слой_1" data-name="Слой 1" xmlns="http://www.w3.org/2000/svg" viewBox="0 0 884.03 945.32"><defs><style>.cls-1{fill:#947943;}</style></defs><path class="cls-1" d="M910.7,989.75c-2.28-.84-4.55-1.71-6.84-2.52-16.8-5.92-27.77-17.53-33.94-34.13-5.1-13.74-15.12-22.43-29.43-25.3-6.35-1.27-13.09-.46-19.63-.93-14.89-1-30.09-.83-44.58-3.89-16-3.4-30.18-11.8-39.53-26.25-7.51-11.61-9.28-24.13-4.2-37,2.86-7.24,2.59-13.32-2.37-19.44-7-8.67-10.75-18.29-7.88-29.78.39-1.56-1.35-4.13-2.76-5.59-8.7-8.94-11.52-19-7.37-31.06.57-1.65-.53-4.76-1.92-6-4.67-4.3-10.09-7.78-14.75-12.09-14.93-13.82-17.57-37.65-5.18-53.78,10-13,21.21-25,31.85-37.53,3.45-4.06,6.64-8.36,10.27-12.25,5.3-5.7,4.87-12,3.2-18.92C732.42,619.91,729,606.57,727,593c-3.84-25.85,3.94-49.58,15.88-72a104.78,104.78,0,0,1,15.79-22.62c9.27-9.86,21.68-13.66,35.18-13.68q21.57,0,43.14,0h6.49c-17.7-67-2.87-123.41,53.81-163.64,47.71-33.87,99.5-34.8,151.18-7.07,19.7,10.57,35.13,26.1,47.72,44.54a138.36,138.36,0,0,1,22.95,60.38c3,22,.39,43.73-6.87,65.79,10.69,0,20.31-.22,29.92.05,12.27.35,24.76-.18,36.74,2,16.34,3,27.08,14,32.89,29.44a292.67,292.67,0,0,1,18.64,121.39c-1.58,27.34-9.86,52.84-23.08,76.55-12.89,23.1-27.06,45.49-40.42,68.33-7.6,13-14.72,26.5-15.86,41.65-1,12.75-1.1,26,1.3,38.46,4.16,21.7,10.87,42.89,15.93,64.43,6.66,28.31-5.91,50.83-33.25,60.81a27.67,27.67,0,0,0-3.67,2ZM1020.52,958v0c32.25,0,64.5.07,96.75,0,16.51,0,23.55-9.41,19.5-25.27-5.52-21.63-11.49-43.17-16.21-65-6.7-31-3.06-61,12.32-88.93,11.27-20.48,23.63-40.35,35.43-60.54,13.39-22.93,25.93-46.23,29.09-73.2,4.76-40.59-1.72-79.75-15.74-117.83-2.59-7-8.31-10.49-15.88-10.5q-32.67,0-65.32,0c-1.7,0-4.1.33-5,1.44-9.06,11.39-18.47,22.57-26.6,34.6-9.39,13.88-10.7,30.26-11.93,46.52-1.78,23.4-20.42,42.22-43.77,43-23,.77-46,.78-69,.06-24.71-.76-43.26-19.93-44.73-44.65-1-15.91-3-31.76-12.07-45.26-8-11.9-17.27-22.9-26.19-34.14-.9-1.14-3.24-1.58-4.92-1.59-21.16-.1-42.32-.38-63.47.2-4.41.13-10.37,2.37-12.83,5.69-14.62,19.73-24.36,41.5-21.17,66.82A235.9,235.9,0,0,0,766,623c5.47,19.58,3.59,37.06-10.9,52.57-12.46,13.34-24.33,27.25-36.1,41.2-7,8.26-6,12.75,2.75,19.37,6.89,5.19,13.91,10.2,20.65,15.58,8,6.39,9.5,13,5.44,22.32a37.5,37.5,0,0,1-2.52,4.93c-1.83,2.94-1.31,5.25,1.21,7.59A109.64,109.64,0,0,1,756,796.2c5.38,6.37,6,12.93,1.45,19.77-2.17,3.24-1.66,5.39.32,8.2,9.36,13.34,11.87,27.53,5.74,43.09-3,7.68-2,12.1,4.8,16.52,6.41,4.14,13.65,8.45,20.95,9.41,13.76,1.82,27.83,1.35,41.77,1.7,32.38.8,55.34,15.7,68.26,45.56,6,13.77,11.33,17.5,26.3,17.51ZM978.59,610.74c9.65,0,19.3.11,28.95,0,11.49-.16,17.3-6.09,17.74-17.5.26-6.55.34-13.17,1.43-19.6a105.66,105.66,0,0,1,27.65-56c16.12-17.07,27.65-36.66,32-59.95a109.83,109.83,0,0,0-76.11-125.34,106,106,0,0,0-64.22.13c-27.78,8.67-49.23,25.92-63.54,51.33-14,24.8-17.55,51.25-11,79.08,4.77,20.32,15,37.54,29,52.74,20.21,21.93,30.18,47.91,30.8,77.66.24,11.53,6.25,17.25,17.81,17.41C958.88,610.85,968.73,610.75,978.59,610.74Z" transform="translate(-520.4 -44.43)"/><path class="cls-1" d="M650.61,44.43c7.78,3.09,15.87,5.57,23.28,9.37,29.52,15.13,46.64,39.65,51.2,72.22,1.83,13.11.67,26.64.86,40,0,2.88.14,5.76,0,8.63-.47,8.26-.3,15.63,7.59,21.62,7.06,5.36,8.29,14.45,8.31,23,.14,40.46.24,80.92,0,121.37-.11,20.86-13.22,33.89-34,33.94q-76.71.23-153.43,0c-20.82-.07-33.86-13.13-33.94-33.92-.16-40.46-.06-80.92,0-121.38,0-11,3.73-20.32,12.51-27.58,2-1.62,3.09-5.23,3.16-8,.46-17.86-.39-35.79.9-53.57,2.36-32.62,18.73-57.24,46.65-73.8,8.52-5,18.29-8,27.48-11.93ZM631,185c18.88,0,37.77-.12,56.64.08,4.61.05,6.61-1,6.48-6.11-.33-13.13,0-26.27-.16-39.4-.19-13.83-3.52-26.84-11.86-38.12-15.92-21.52-43.23-31.32-66.9-24.24-27.67,8.28-44.94,29.27-46.44,57.64-.79,14.94-.18,29.95-.47,44.92-.09,4.69,2.22,5.29,6.07,5.26C593.28,184.89,612.16,185,631,185Zm-.81,78.72c24.43,0,48.85,0,73.28,0,3.7,0,6.32-.33,6.23-5.17-.22-12.31-.13-24.62,0-36.93,0-3.41-1.24-4.66-4.7-4.66q-73.89.12-147.78,0c-3.78,0-5,1.32-5,5,.17,11.7.28,23.4,0,35.09-.13,5.05,1.4,6.78,6.58,6.73C582.61,263.58,606.42,263.71,630.23,263.7Zm.35,78.92c24.43,0,48.85-.07,73.27.07,4,0,6-.79,5.91-5.36-.25-12.1-.17-24.21,0-36.32,0-3.67-1.29-5.21-5-5.1-5.95.17-11.9,0-17.86,0H561.22c-8.89,0-8.89,0-8.88,9.15,0,10.47.26,20.94-.11,31.4-.18,5,1.58,6.24,6.31,6.2C582.56,342.52,606.57,342.62,630.58,342.62Z" transform="translate(-520.4 -44.43)"/><path class="cls-1" d="M1337.22,44.43c7.59,5.24,15.55,10.32,17.87,20.08a66.8,66.8,0,0,1,1.9,15.15q.21,81.63,0,163.28c0,5.25,1.32,7.85,6.63,9.78,25,9.07,41.87,34.49,40.76,60.19-1.2,27.82-19.43,51.72-45.13,59.17a63.78,63.78,0,0,1-77-38c-11.68-30.09,1.74-66,31.48-78.92,10.28-4.46,11.54-9.78,11.4-19.13-.47-30.39-.29-60.79-.06-91.19,0-5.32-1.29-7.32-6.86-7-7.57.46-15.2.27-22.79.05-10.72-.3-17.4-6.59-17.34-16s7-15.71,17.5-15.92c9.42-.19,18.84,0,29.27,0,0-9.83.15-19.18-.24-28.5,0-.93-3.33-2.42-5.13-2.45q-18.48-.33-37-.07c-8.42.12-15.57-1.77-19.15-10.31-3-7.11-.84-12.86,7.28-20.25Zm-27.16,266.75a31,31,0,0,0,31,31.39c17.14,0,31.58-14.39,31.43-31.31a31.85,31.85,0,0,0-31.66-31.2A31.22,31.22,0,0,0,1310.06,311.18Z" transform="translate(-520.4 -44.43)"/><path class="cls-1" d="M1254.53,453.64c-28.11,0-56.22.09-84.34,0-12.85-.06-20.49-8.82-17.73-20,1.59-6.42,5.88-10.22,12.26-11.47a45.34,45.34,0,0,1,8.57-.53q72.35,0,144.67.06c4.68,0,7.36-.78,8.84-5.94,1.83-6.38,9.29-10.46,15.5-9.8,7.6.8,13.48,6.18,14.31,13.79a117.4,117.4,0,0,1,.42,15.36c-.26,12.31-6.45,18.44-18.78,18.5-21.34.1-42.68,0-64,0Z" transform="translate(-520.4 -44.43)"/><path class="cls-1" d="M709.71,453.64q-37.25,0-74.48,0c-13.9,0-20.27-6.4-20.2-20.39A80,80,0,0,1,616.08,418a15.43,15.43,0,0,1,14.5-12.1c6.2-.32,13.71,4,15.19,10.4,1.27,5.51,4.39,5.37,8.45,5.36q64.34-.06,128.66,0a52.07,52.07,0,0,1,9.18.59,15.59,15.59,0,0,1,12.66,14.7,15.36,15.36,0,0,1-10.83,15.44,35.42,35.42,0,0,1-9.69,1.21C759.37,453.68,734.54,453.63,709.71,453.64Z" transform="translate(-520.4 -44.43)"/><path class="cls-1" d="M1150.36,283.4c-.83,1.77-1.68,5.66-4,8.18-7.62,8.28-15.52,16.34-23.81,23.94a15.43,15.43,0,0,1-21.66-.68c-5.94-6.06-6.51-15.09-.5-21.66,7.45-8.14,15.34-15.92,23.4-23.47,5.06-4.74,11.26-5.71,17.67-2.52C1147.31,270.11,1150.12,275.05,1150.36,283.4Z" transform="translate(-520.4 -44.43)"/><path class="cls-1" d="M842.25,319.51c-1.83-.91-6-2-8.86-4.58-7.73-7-15.14-14.42-22.22-22.08-6.54-7.07-6.31-16.54-.14-22.63s15.42-6.32,22.64.36c7.66,7.09,15,14.59,22.13,22.18,4.79,5.07,5.85,11.26,2.88,17.65C855.94,316.31,851,319.26,842.25,319.51Z" transform="translate(-520.4 -44.43)"/><path class="cls-1" d="M962.36,233c0-5.33-.18-10.66,0-16,.39-9.4,7.25-16.2,16-16.12,8.48.08,15.35,6.61,15.67,15.75.37,10.43.37,20.9,0,31.33-.31,9.68-7,16.08-16,16s-15.38-6.73-15.73-16.26C962.21,242.83,962.36,237.91,962.36,233Z" transform="translate(-520.4 -44.43)"/><path class="cls-1" d="M978.54,673.85c19.5,0,39-.11,58.5.08a32.32,32.32,0,0,1,11.39,2c6,2.4,9.4,9.55,8.49,16.3a15,15,0,0,1-12.82,13,58.46,58.46,0,0,1-8.57.66q-56.64.06-113.29,0a68.28,68.28,0,0,1-9.8-.67,15,15,0,0,1-13-14.21c-.44-7.51,3.81-14,10.87-15.9a37.74,37.74,0,0,1,9.7-1.25C939.55,673.79,959.05,673.85,978.54,673.85Z" transform="translate(-520.4 -44.43)"/></svg>