<svg id="Слой_1" data-name="Слой 1" xmlns="http://www.w3.org/2000/svg" viewBox="0 0 1063.91 1004.35"><defs><style>.cls-1{fill:#947943;}</style></defs><path class="cls-1" d="M1198.86,505.73c0-104.46-85-189.45-189.45-189.45S820,401.27,820,505.73s85,189.45,189.45,189.45S1198.86,610.19,1198.86,505.73ZM1009.41,668.52c-89.76,0-162.79-73-162.79-162.79s73-162.79,162.79-162.79,162.78,73,162.78,162.79S1099.17,668.52,1009.41,668.52Z" transform="translate(-431.8 -14.47)"/><path class="cls-1" d="M1008.63,965.36c-253.08-.42-458.85-206.45-458.85-459.63a465.22,465.22,0,0,1,4.91-67.3l57.84,84.45a13.33,13.33,0,0,0,18.56,3.46h0a13.34,13.34,0,0,0,3.46-18.54l-83-121.09L436.82,478.28A13.33,13.33,0,0,0,434.71,497h0a13.33,13.33,0,0,0,18.75,2.11l74.16-59.19a493.09,493.09,0,0,0-4.5,65.79c0,268.14,218.15,486.3,486.29,486.3a13.35,13.35,0,0,0,13.15-15.6C1021.48,969.86,1015.29,965.37,1008.63,965.36Z" transform="translate(-431.8 -14.47)"/><path class="cls-1" d="M1442.86,329.51a13.34,13.34,0,0,0,12.21-18.68,485.35,485.35,0,0,0-22.42-44.75,13.33,13.33,0,1,0-23.19,13.15,460.92,460.92,0,0,1,21.18,42.29A13.36,13.36,0,0,0,1442.86,329.51Z" transform="translate(-431.8 -14.47)"/><path class="cls-1" d="M1470.44,612.65a13.34,13.34,0,0,0-16.28,9.53,456.77,456.77,0,0,1-36.72,95.36,13.33,13.33,0,1,0,23.65,12.31A484.56,484.56,0,0,0,1480,628.93,13.35,13.35,0,0,0,1470.44,612.65Z" transform="translate(-431.8 -14.47)"/><path class="cls-1" d="M1487.09,414.12a13.34,13.34,0,1,0-26.2,5,463.44,463.44,0,0,1,8.15,86.62q0,7.68-.25,15.29a13.33,13.33,0,0,0,12.88,13.77h.45a13.33,13.33,0,0,0,13.32-12.89q.27-8.05.27-16.18A490.38,490.38,0,0,0,1487.09,414.12Z" transform="translate(-431.8 -14.47)"/><path class="cls-1" d="M1360.48,802.41a461.87,461.87,0,0,1-74.23,70.26,13.33,13.33,0,1,0,16.08,21.27,489.13,489.13,0,0,0,78.51-74.3,13.34,13.34,0,1,0-20.36-17.23Z" transform="translate(-431.8 -14.47)"/><path class="cls-1" d="M1209.14,949.25a13.35,13.35,0,0,0,5.57-19.64c-3.7-5.54-11.18-7.07-17.26-4.34-7.7,3.45-15.55,6.66-23.46,9.69l45.11-92a13.34,13.34,0,0,0-6.12-17.86h0a13.35,13.35,0,0,0-17.84,6.12L1130.56,963l136.18,54.84a13.35,13.35,0,0,0,17.36-7.38h0a13.34,13.34,0,0,0-7.39-17.37l-87.82-35.35C1195.7,955.05,1202.49,952.25,1209.14,949.25Z" transform="translate(-431.8 -14.47)"/><path class="cls-1" d="M599.15,268.67a13.34,13.34,0,0,0,18.85-4C702.47,127.8,848.8,46.1,1009.41,46.1a459,459,0,0,1,288.25,101.61l-102.08,6.86a13.32,13.32,0,0,0-12.41,14.22h0a13.34,13.34,0,0,0,14.2,12.4l146.46-9.87L1323.34,26a13.32,13.32,0,0,0-15.06-11.35h0a13.34,13.34,0,0,0-11.36,15.07l13.27,94A485.63,485.63,0,0,0,1009.41,19.43c-169.66,0-324.25,86.16-413.68,230.53C591.91,256.13,593.14,264.6,599.15,268.67Z" transform="translate(-431.8 -14.47)"/><path class="cls-1" d="M1144.75,737.12c11.21,7,22.62,13.76,34,20.54,14.86,8.85,30,7,42.32-5.14q17.58-17.37,35-34.94c12.33-12.45,14.12-27.64,5.11-42.76-7-11.66-13.87-23.35-21-34.9-3.09-5-3-9.53-.58-14.87,5.82-13,11.46-26.08,16.4-39.41,2.44-6.6,6.09-10.51,12.92-12.08,13.06-3,26-6.46,39-9.59a33,33,0,0,0,25.67-32q.2-26.25,0-52.5c-.11-15.48-10.68-28.28-25.79-31.94-13.84-3.34-27.63-7-41.45-10.42-4.87-1.22-7.61-4.27-9.48-9q-8.43-21.27-17.6-42.22c-2.17-5-2.23-9.3.64-14,7.28-11.86,14.41-23.82,21.5-35.79,8.64-14.57,6.79-29.9-5.11-41.94q-17.57-17.76-35.32-35.31c-12.28-12.14-27.42-13.91-42.32-5-11.82,7-23.65,14-35.35,21.26-4.84,3-9.27,2.84-14.41.56-13.32-5.89-26.72-11.64-40.33-16.8-6-2.29-9.64-5.64-11.11-11.91-3.1-13.21-6.61-26.32-9.81-39.51-3.75-15.52-16.35-25.83-32.3-25.94q-26-.19-52,0c-15.86.11-28.47,10.53-32.23,26-3.32,13.68-6.94,27.29-10.33,40.95-1.27,5.08-4.35,7.91-9.25,9.84q-21,8.28-41.74,17.41c-5.15,2.27-9.57,2.33-14.4-.66-11.7-7.23-23.55-14.2-35.35-21.25-14.78-8.84-30.11-7-42.32,5.16q-17.52,17.41-35,34.94c-12.35,12.41-14.15,27.73-5.13,42.74,7.08,11.78,14.07,23.63,21.25,35.35,2.86,4.66,2.75,9,.58,14-6,13.81-11.93,27.7-17.43,41.74-2,5.09-4.91,8.24-10.18,9.54-13.67,3.35-27.29,7-41,10.27-15.08,3.64-25.58,16.44-25.68,32q-.18,26.25,0,52.5c.11,15.51,10.69,28.34,25.74,32,13.69,3.3,27.29,6.93,41,10.27,5.31,1.3,8.18,4.5,10.16,9.57q8.14,20.82,17.2,41.29c2.39,5.35,2.44,9.88-.64,14.86-7.22,11.7-14.49,23.39-21.13,35.42-2.95,5.34-4.44,11.49-6.59,17.27l1.29.49c-.23,9.38,3.35,17.19,9.89,23.74q17.63,17.69,35.3,35.32c12.63,12.59,27.8,14.38,43.14,5.18,11.64-7,23.34-13.87,34.9-21,4.83-3,9.25-2.87,14.41-.59,13.63,6,27.38,11.82,41.28,17.21,5.28,2.05,8.51,5.05,9.85,10.53,3.26,13.34,6.81,26.62,10.07,40,4,16.45,16.41,26.42,33.39,26.49q25.23.09,50.46,0c16.29-.08,28.95-10.27,32.76-26,3.11-12.86,6.56-25.64,9.5-38.54,1.61-7,5.63-10.75,12.43-13.21,12.89-4.67,25.6-9.94,38-15.8C1133.89,733.45,1139,733.5,1144.75,737.12Zm-26.93-20.44a376.58,376.58,0,0,1-38,15.66c-14.36,5.21-21.33,15.74-24.49,30-2.71,12.25-6,24.38-9.11,36.54-1.6,6.24-5.17,9.17-11.69,9.21q-25,.2-50,0c-6.79,0-10.31-2.94-12-9.49-3.49-13.64-6.88-27.31-10.35-41-3.18-12.47-10.88-20.59-23-25.18-13.61-5.17-27.11-10.7-40.35-16.73-11.79-5.37-22.93-5.2-34,1.41-12,7.14-23.85,14.37-35.83,21.44-6.91,4.08-10.62,3.56-16.3-2.09q-17.14-17.07-34.2-34.25c-5.49-5.53-6-9.22-2.07-15.86,6.91-11.69,13.84-23.38,20.93-35,7.27-11.87,7.56-23.59,1.47-36.26-6-12.5-11.07-25.49-15.88-38.51-4.62-12.48-12.78-20.51-25.71-23.73q-20.49-5.1-40.95-10.36c-6-1.55-9.09-5-9.16-11.21q-.27-25.73,0-51.47c.07-5.94,3.19-9.4,8.93-10.87,13.8-3.53,27.63-7,41.44-10.47,12.7-3.21,20.79-11.17,25.38-23.44,4.93-13.16,10.08-26.29,16.09-39,5.92-12.49,5.68-24.11-1.47-35.81-6.82-11.16-13.51-22.39-20.22-33.6-5-8.3-4.58-11.61,2.14-18.35q16.56-16.6,33.15-33.14c6-5.94,9.44-6.42,16.68-2.14,11.11,6.56,22.26,13.06,33.16,19.94,12.43,7.85,24.67,8.53,38.08,2,12.3-6,25.17-10.92,38-15.69,12.47-4.62,20.5-12.81,23.72-25.73q5.1-20.51,10.36-41c1.54-6,5-9.11,11.19-9.16q25.73-.24,51.47,0c5.89.07,9.35,3.17,10.84,9,3.54,13.8,7,27.63,10.47,41.45,3.23,12.69,11.19,20.76,23.47,25.35,13.32,5,26.54,10.31,39.43,16.3,11.55,5.37,22.56,5.71,33.55-.69,12.17-7.1,24.18-14.45,36.28-21.67,7.32-4.36,11-3.89,17.09,2.2,11.3,11.29,22.66,22.51,33.79,33.94,2.24,2.3,3.62,5.44,5.47,8.3-1.5,3.28-2.46,6-3.89,8.41-6.72,11.41-13.47,22.8-20.4,34.08-7.31,11.87-7.53,23.58-1.46,36.24s11.22,25.8,16,39c5.22,14.37,15.76,21.32,30,24.49,12.25,2.73,24.38,6,36.53,9.11,6.08,1.56,9.12,5,9.19,11.18q.27,25.49,0,51c-.06,6.4-3.15,9.88-9.48,11.51-13.47,3.46-26.94,6.92-40.45,10.22-13,3.17-21.19,11.09-25.85,23.57-4.91,13.17-10.06,26.3-16.08,39-5.94,12.5-5.7,24.09,1.47,35.8,6.83,11.14,13.49,22.39,20.21,33.61,5,8.29,4.59,11.61-2.13,18.35q-16.55,16.61-33.13,33.16c-5.87,5.85-9.69,6.33-16.72,2.12-11.06-6.62-22.21-13.12-33.12-20C1143.76,710.5,1131.36,710,1117.82,716.68Z" transform="translate(-431.8 -14.47)"/></svg>