<svg id="Слой_1" data-name="Слой 1" xmlns="http://www.w3.org/2000/svg" viewBox="0 0 1191.3 1028.35"><defs><style>.cls-1{fill:#947943;}</style></defs><path class="cls-1" d="M435,361.26a64,64,0,0,0,18.52,34.2,12.11,12.11,0,0,0-.14,1.35v96.8a12.68,12.68,0,0,0,25.36,0v-82.5a86.35,86.35,0,0,0,29.47,5.67h.47a12.68,12.68,0,0,0-.14-25.35c-1.7,0-41.61-.44-48.69-35.22-1.86-9.11-2.26-21,6.38-26.22,6.84-4.1,16.39-2.7,19.69,0,9.52,7.89,17.82,25.06,20.22,31a12.67,12.67,0,0,0,24.44-4.61c0-.39,1.19-38.71,20.76-39.69,6.89-.32,16.38.64,26.43,1.68,25.22,2.62,57,5.83,84.76-6.41,2.56,20.94,5.92,52.18,5.92,72.26,0,3.5.08,7.48.17,11.81.89,43.85-1,91-35.07,95.94-45.56,6.51-80-32.37-80.52-33a12.68,12.68,0,0,0-19.24,16.51c1.26,1.48,23.48,26.83,58.11,37.68V543a12.68,12.68,0,1,0,25.35,0V517.85c1.87.1,3.71.27,5.63.27a99.1,99.1,0,0,0,14.28-1c59.12-8.5,57.61-82,56.8-121.54-.08-4.15-.16-8-.16-11.3,0-26.38-5.17-68.78-7.69-87.89a87,87,0,0,0,8.1-8.62c27.28-33.65,25-61.52,21.26-75.14-2.51-9.07-8.38-20.72-16.64-23.73-5.25-1.92-9.83-.4-15.6,1.53-10.8,3.59-30.9,10.29-61.2,1.08-7.56-2.29-15.13-5.09-23.15-8.06-39.47-14.61-84.2-31.16-138.89,10.51C434.82,213.14,420.7,240.84,419.2,274c-1.33,29.48,7.79,57.75,14.47,67.36A69.51,69.51,0,0,0,435,361.26ZM475.4,214.1c43.6-33.22,78.14-20.43,114.72-6.9,8,3,16.3,6,24.58,8.54,36.27,11,61.63,3.64,74.76-.68,3.66,8.25,8.11,28.33-14.9,56.71-1.14,1.41-2.34,2.67-3.55,3.92-.18,0-.37,0-.55,0a12.67,12.67,0,0,0-10.33,9c-22.77,14.4-52.7,11.3-79.7,8.52-11-1.15-21.48-2.25-30.31-1.79-19.8,1-31.48,14.14-37.94,29.58a70.27,70.27,0,0,0-10-10.48c-6.73-5.57-16.12-8.41-25.7-8.41a45.54,45.54,0,0,0-23.2,6.15,38,38,0,0,0-4.63,3.28C442.3,287.69,438.27,242.39,475.4,214.1Z" transform="translate(-360.67 -11.91)"/><path class="cls-1" d="M1283.15,487.54c0-41.84-30.08-41.84-64.92-41.84H951.52c-35.79,0-49.74,16-49.74,57V691.66c0,42.12,29.16,47.92,60.67,47.92,34.26,0,378.12-1.2,381.58-1.22a12.67,12.67,0,0,0,9-21.6l-69.84-70.41Zm30.52,225.58c-85.31.29-323.07,1.11-351.22,1.11-33.89,0-35.32-6.92-35.32-22.57V502.72c0-31.67,6.65-31.67,24.39-31.67h266.71c39.57,0,39.57,1.87,39.57,16.49v164a12.64,12.64,0,0,0,3.68,8.92Z" transform="translate(-360.67 -11.91)"/><path class="cls-1" d="M772.86,359c4,0,402.83,1.47,442.56,1.47,41,0,68.34-9.37,68.34-55.09V78c0-48.15-15.08-66.06-55.66-66.06H918.76c-40.94,0-73.27,0-73.27,47.78V252.05l-81.75,85.53A12.67,12.67,0,0,0,772.86,359Zm94.47-93.13a12.62,12.62,0,0,0,3.51-8.75V59.69c0-19.44,0-22.43,47.92-22.43H1228.1c22.52,0,30.31,2,30.31,40.71V305.39c0,21.58-3.71,29.74-43,29.74-33.3,0-319.34-1-413-1.37Z" transform="translate(-360.67 -11.91)"/><path class="cls-1" d="M1200,522.25H983.72a12.68,12.68,0,1,0,0,25.35H1200a12.68,12.68,0,1,0,0-25.35Z" transform="translate(-360.67 -11.91)"/><path class="cls-1" d="M983.72,605.52H1175.3a12.68,12.68,0,0,0,0-25.35H983.72a12.68,12.68,0,1,0,0,25.35Z" transform="translate(-360.67 -11.91)"/><path class="cls-1" d="M1079.71,638.08h-96a12.68,12.68,0,1,0,0,25.35h96a12.68,12.68,0,1,0,0-25.35Z" transform="translate(-360.67 -11.91)"/><path class="cls-1" d="M1188.89,638.08H1141a12.68,12.68,0,0,0,0,25.35h47.87a12.68,12.68,0,0,0,0-25.35Z" transform="translate(-360.67 -11.91)"/><path class="cls-1" d="M1531.61,516.75c-18.43-8.6-31.29-13.52-31.83-13.72a12.68,12.68,0,0,0-16.38,7.38l-166,441.37H1046c-.29-4.63-1-11.21-3-16.57-4.11-11.32-12.22-16.22-42.42-34.47-3.88-2.34-7.61-4.68-11.21-6.94-24.13-15.16-46.93-29.47-77.42-18.43-21.79,7.89-70.82,24.85-92.19,32.23a23.62,23.62,0,0,0-3.21-4.48c-7.22-7.76-17.86-8.66-25.24-8.66-15.57,0-44.31-.75-69.67-1.41l-1.41,0a12.58,12.58,0,0,0,0-3.07A973.28,973.28,0,0,0,692,744.37c-21.12-75.92-72.57-168.58-74.76-172.49a12.61,12.61,0,0,0-11.79-6.48c-.38,0-38.32,2-75-10.66a526.69,526.69,0,0,1-71-31.14,12.71,12.71,0,0,0-16.34,3.65c-1,1.37-24.65,34.66-53.28,147.11-29.14,114.53-29.14,189.35-29.14,229.54,0,1.15.75,115.45,10.06,128.47,4.27,6,5.63,7.89,105,7.89,20.06,0,44.14-.08,73-.22,88.33-.42,188.8-1.6,231.71-2.1,13.47-.16,21.89-.26,23.38-.26a18.33,18.33,0,0,0,13.79-5.61,19.31,19.31,0,0,0,4.89-9.55,249.39,249.39,0,0,0,43.38-7.85c5.95,11.62,19.39,25,44.26,25H1337.3c23.65,0,41.31-7.2,52.49-21.41,12.42-15.8,12.81-35.9,11.7-47.48,11.84-31.91,127.63-344,139.64-375.47C1548.93,574.91,1565.16,532.41,1531.61,516.75ZM391.34,1013.64C388.86,995.25,386,944,386,903.9c0-39.09,0-111.84,28.37-223.28,19.14-75.21,35.76-113.2,43.89-129a546.75,546.75,0,0,0,63.82,27.12c31,10.75,62.2,12.19,76.59,12.2,12.16,22.64,51.7,98.61,68.85,160.27a969.79,969.79,0,0,1,27.53,141.22c-9.05-.21-16.34-.34-20.79-.34-30.38,0-61-28.9-61-93.45V714a12.68,12.68,0,1,0-25.35,0v84.64c0,82.06,43.39,118.8,86.39,118.8,7.94,0,26.78.49,46.72,1,9.45.24,19.35.5,28.9.73v93.81c-58.2.65-107.48,1.11-149.14,1.42h-.09c-71.63,0-121.89-82-121.89-126.45V742.09a12.68,12.68,0,1,0-25.36,0V887.9c0,35.76,27,93.9,73,126.88C443.23,1015.08,405.73,1014.49,391.34,1013.64Zm406.22-13.89c.25,4.4.52,9.15.54,12.63l-17.89.21-5,.06v-93c6.12.1,11.64.16,16.08.16a21.68,21.68,0,0,1,6.61.7c.91,3,.26,11.87-.26,19.11-.54,7.47-1.2,16.77-1.2,27.46C796.48,980.5,797.08,991.17,797.56,999.75ZM822.8,997c-.45-8-1-17.86-1-29.92,0-9.78.6-18.21,1.14-25.64.2-2.89.38-5.63.52-8.3,18-6.2,73.43-25.36,97.11-33.92,18-6.53,31.35,1,55.31,16,3.72,2.33,7.57,4.75,11.58,7.17,19,11.49,30.7,18.66,31.7,21.43a35.56,35.56,0,0,1,1.38,7.91H922.36a12.68,12.68,0,0,0-11.63,7.62c-1,1.36-6.31,7.44-25.63,19.92C867.27,990.83,838.86,995.32,822.8,997Zm547.06,5.62c-6.13,7.78-17.08,11.73-32.56,11.73H910.21c-11.57,0-17.39-4.68-20.25-8.71a90.21,90.21,0,0,0,8.9-5c16.24-10.48,25.14-18,30-23.48h447.65C1376.82,984.63,1375.86,995,1369.86,1002.62Zm147.59-416.33C1506.22,615.7,1404.82,889,1381.51,951.78h-37l158-420.24c5,2.11,11.24,4.87,18.35,8.19C1525.14,541.71,1533.06,545.4,1517.45,586.29Z" transform="translate(-360.67 -11.91)"/><path class="cls-1" d="M1184.61,102.64H936.73a12.68,12.68,0,0,0,0,25.36h247.88a12.68,12.68,0,1,0,0-25.36Z" transform="translate(-360.67 -11.91)"/><path class="cls-1" d="M1038.33,202.11a12.68,12.68,0,0,0,0-25.35h-96a12.68,12.68,0,1,0,0,25.35Z" transform="translate(-360.67 -11.91)"/><path class="cls-1" d="M1130.32,202.11a12.68,12.68,0,0,0,0-25.35h-38.55a12.68,12.68,0,1,0,0,25.35Z" transform="translate(-360.67 -11.91)"/><path class="cls-1" d="M1134,250.88H925.53a12.68,12.68,0,0,0,0,25.35H1134a12.68,12.68,0,1,0,0-25.35Z" transform="translate(-360.67 -11.91)"/></svg>