<svg id="Слой_1" data-name="Слой 1" xmlns="http://www.w3.org/2000/svg" viewBox="0 0 478.83 483.27"><defs><style>.cls-1{fill:#fafafa;}</style></defs><path class="cls-1" d="M851.51,758.72l-28.9-7.45c8.77-36.69,17.55-73.39,26.48-110.7H754.37V338H723.5V306.79H946.84V275.45h32.09v31h223.4v31.19h-30.6V640.3H1076.6c9,37.39,17.73,74.05,26.57,111l-28.91,7.43h-1.88a25.53,25.53,0,0,0-.33-2.77c-3.88-16.05-8-32.05-11.51-48.19-.88-4.09-2.38-4.82-6.11-4.81q-89,.16-177.91.08c-9.84,0-10,0-12.29,9.31-3.74,15.43-7.23,30.92-10.83,46.38ZM785.77,338V608.5H1139.9V338Zm266,333.65c-2.11-9-4.31-17.39-6-25.91-.83-4.19-2.62-5.35-6.9-5.33-50.6.17-101.2.11-151.79.11a9.6,9.6,0,0,0-3.27.09c-1.13.44-2.68,1.29-2.92,2.25-2.42,9.46-4.61,19-6.93,28.79Z" transform="translate(-723.5 -275.45)"/><path class="cls-1" d="M939.52,472.21l-87.84,87.85-21.19-21.19,109.6-109.59,45.22,45.54,88.27-88.28,21.33,21.92c-36.13,36.08-72.9,72.79-109.77,109.62Z" transform="translate(-723.5 -275.45)"/></svg>