<svg id="Слой_1" data-name="Слой 1" xmlns="http://www.w3.org/2000/svg" viewBox="0 0 711.34 413.87"><defs><style>.cls-1{fill:#b49a62;}</style></defs><path class="cls-1" d="M607.25,546.65c2.79-3.48,5.47-7.07,8.46-10.39a6.62,6.62,0,0,1,4.16-2.09c9.35-.43,17.72-4.64,26.67-6.53,1.8-.37,3.74,0,6.23,0-.67-2.88-1.33-5.69-2-8.51a34.62,34.62,0,0,1,3-23.51,7.17,7.17,0,0,0,.07-5.46c-6.22-13,1.58-26.66,15.88-27.19,2.7-.11,4.12-1,4.8-3.45,1.18-4.26,2.4-8.51,3.59-12.76,4.74-16.88,18.56-26.91,36-26.44a12.64,12.64,0,0,0,6.81-2c6.85-4.48,14-5.15,21.79-3.23a8.9,8.9,0,0,0,6.2-1.43c8-5.28,15.77-11,23.75-16.32,5-3.33,10.38-6,15.28-9.48,13.32-9.3,28.24-6.36,35.79,8.08,7.29,13.94,7,28.91,3.64,43.94-.34,1.51-.92,3-1.59,5.13a58.5,58.5,0,0,0,6.69.88c11.32.15,21.5,3.16,30,11.11.9.84,3.23,1.5,4,1,7.06-4.95,13.47-2.69,19.84,1.32.5.31,1.08.51,2.07,1,3.25-8.5,9.13-14.15,17.77-16.42,8.18-2.14,15.72-.74,21.9,5.44a11.45,11.45,0,0,1,2.47,4c1.82,4.86,2.43,4.6,7.27,2.33A77.53,77.53,0,0,0,959.51,440c4.55-4.48,12.46-5.48,18.73-8.33,2.41-1.1,5.09-2.59,6.54-4.67,7.52-10.84,19.29-13.08,30.17-5.64,2.1,1.43,4.87,2.05,7.43,2.62,13.12,2.95,18.41,9.18,19,22.66a30.32,30.32,0,0,0,.6,3,62.17,62.17,0,0,0,5.87-4c8.76-7.57,20.54-9.83,29.5-5.1,3.26,1.72,6,4.42,9.49,7,.28-2.86.35-5.47.81-8,2.36-12.88,11.08-22,24.59-23.37,9.65-1,17.34-2.55,22.45-12.23,3.32-6.3,10.86-8.66,18-9.13,4.3-.28,6.31-2.12,7.42-5.83,1.72-5.74,3.76-11.41,5.15-17.24,3.35-14,10.8-25.4,22.75-33.25,9-5.94,16.21-13.44,22.63-21.95,4.17-5.53,9.8-8.43,16.88-7.69,5.84.6,9.84,3.83,12.42,9.05a12.32,12.32,0,0,0,3.17,4.47c11.31,8.4,12.81,21.66,3.5,32.11-.79.89-1.49,1.87-2.8,3.53,3.56.32,6.32.62,9.08.81,13.15.93,21.44,15.25,13.79,26.35-.93,1.35-.55,4.15.12,5.94,2.34,6.18,5.77,12,7.51,18.33,3,11-.22,18.29-9.59,24.87-2.42,1.7-3.6,9.34-1.68,13.16,2.38,4.76,5.61,8.89,10.89,10.71,15.7,5.41,25.09,15.87,30,32.1,2.61,8.7,9.65,16.07,14.69,24v15.2c-5.89,8.2-13.76,9.4-22.69,6.19-6.68-2.41-13.36-4.88-19.85-7.75-13.74-6.09-21.86-16.92-24.94-31.44-2.21-10.45-8.27-18.62-14.42-26.87-4.13.88-4.66,2.95-3.4,6.58,5.57,16.08,2.94,28.39-10.47,37.91-12.33,8.75-18.76,20-21,34.43-1.09,7-2.71,13.83-4.34,22,2.45-1.45,3.76-2.21,5.06-3,9.91-6,19.76-5.29,28.42,2.43,10.67,9.52,17.14,21.83,22.13,34.94,9.38,24.63,11.64,50.18,8.06,76.1a39.1,39.1,0,0,1-7.87,18.42,115.76,115.76,0,0,1-21,19.64c-9.32,6.92-21.14,3.36-25.38-7.58-5.15-13.32-8.26-27.07-.2-40.66a11.14,11.14,0,0,0,.57-2.38c-9.18,5.29-18.39,6.57-27.86,3.82a64.91,64.91,0,0,1-26-15.13c-2.9-2.68-5.57-5.71-8.78-8-2.36-1.66-5.43-2.33-8.49-3.56,0,8,.69,14.73-.13,21.31-2.19,17.68-14,28-31.83,28-5.42,0-9.64,1.23-13.64,5-12.23,11.49-26.6,12.89-42,7.83-7.28-2.39-14.56-3.89-22.32-3.43-7,.42-13.26-2.49-19.07-6.28-1.26-.83-2.56-1.62-4-2.51-4,14.53-18.85,19.39-31.85,14.88-3.58-1.24-7.31-2.42-10.47-4.41-5.41-3.42-10.11-3.2-15.75-.14a43.25,43.25,0,0,1-15.63,5c-13,1.4-23.58-4-31.52-14-5.41-6.83-11.18-12.23-20.41-13.11-2.32-.22-5-2.33-6.51-4.32-5.54-7.22-10.09-15.08-10.3-24.49-.09-4.34-1.61-6.11-5.85-5.78-6.89.55-11.86-2.31-15.12-8.43a10.14,10.14,0,0,0-3.38-3.84,15.18,15.18,0,0,1-7.8-14.44c-7.48-1.91-14.75-3.82-22.06-5.55-.84-.19-2,.59-2.91,1.07-6.26,3.24-11.81,6.73-15.48,13.56-2.79,5.21-9.42,6-15.36,5.13a28.52,28.52,0,0,1-20.42-12.47,30.51,30.51,0,0,0-6.88-7.68c-8.52-6.09-15.73-13.22-20.47-22.65-1.55-3.09-3.36-4.22-7.17-2.77-3.38,1.29-7.37,1-11.57,1.5-.52,2.92-1,6.48-1.82,10-3.18,13.34-12.94,20.49-26.5,18.66-4.63-.63-6.27,1-7.51,4.77a88.35,88.35,0,0,1-3.9,10.16c-4.75,10-13.49,15.14-22.68,13.66-8.41-1.34-15-9.71-16.68-20.24-1.48-9.17-3.36-18.3-5.63-27.31-1-4-3.55-7.64-5.19-11.53-3.09-7.37-6-14.81-9-22.22Zm606.27-191.37c-7.76,6.27-16.28,10.52-19.19,20.27-2,6.81-3.67,13.75-5.88,20.5-4.5,13.69-12,24.62-27.63,26.64-4.25.55-6.27,2.44-8,6-4.39,9.22-11.9,14.05-22.11,14.7-3.79.24-7.57.63-11.36.82-2.55.12-3.53,1.16-3.55,3.82-.08,11.92-6.09,21.22-14.41,28.82-10.51,9.61-22.55,8-31.24-3.21-1.3-1.68-2.56-3.4-4.08-5.43a34.44,34.44,0,0,1-22.22,9.86c-6.42.46-13.13,1.22-19.25-.17-4.32-1-8.49-4.78-11.6-8.33-4.46-5.09-5.18-11.62-2.95-19.42-3,.48-5.69.13-7.15,1.29-5.86,4.7-12.54,7.28-19.71,8.85a12.29,12.29,0,0,0-8.51,6,22.56,22.56,0,0,1-7.92,7.94c-7.59,4-15.58,7.37-23.54,10.67-2.25.93-5,.74-7.45,1.07-1.22.16-2.86-.09-3.6.6-3.45,3.2-7.2,6.29-9.81,10.13-4.45,6.56-10.13,9.11-17.83,8a6.32,6.32,0,0,0-4.21.95c-9.91,7.15-21.72,4-26.55-7.34-1.3-3-2.34-6.18-3.61-9.57-11.9,2-20.49-3.76-28.52-11.26-1.53-1.43-4.16-2-6.37-2.32-13.61-1.75-27.31-2.93-40.87-5-16.33-2.52-31.23-7.43-33.84-26.74-5.24.54-10.19,1.38-15.15,1.42-2.67,0-4.24.51-5.84,2.76-3.89,5.45-9.92,7.23-16.42,5.3-2.43-.71-4.79-1.61-7.2-2.4-7.06-2.32-8.71-1.16-10.57,6.08-3.55,13.77-6.49,28-20.16,35.39-.48,3.07,0,6.33-1.45,8.23-6.58,8.86-3.51,17.36-.94,26.67,4.86,17.61-6.34,31.57-24.53,31.24-6.21-.11-11.84,0-17.58,3.07-3.06,1.63-4.14,3-3.4,6a35.53,35.53,0,0,0,2.23,5.62C643,580.46,646.52,588.19,650,596c.54,1.19.95,2.43,1.47,3.79,10.8-7.68,12.13-8.13,25.17-8.65a36.09,36.09,0,0,1,.54-4.09c1.42-5.65,2.38-11.49,4.53-16.85a19.86,19.86,0,0,1,14.52-12.57c5.91-1.28,12-2,16.7,3.49.6.69,2.34.71,3.5.58,14.86-1.68,26.36,4,33.1,17.08,4.59,8.95,13,13.54,18.71,20.18,3.91-2.1,7.34-3.91,10.75-5.78a6,6,0,0,0,1.81-1.42c6.13-7.7,13-10,22.56-7s18.68,7.75,29.13,7.22a11.08,11.08,0,0,1,3.7.8c10.66,3.4,20.17,8.25,22.19,20.71.7,4.34,1.87,5.61,6.55,4.75,11.71-2.14,20.63,4.28,22.61,16,1,6.07,1.14,12.29,1.93,18.4.19,1.48,1.08,3.69,2.18,4.09,12.07,4.31,21.42,11.94,28.82,22.27,2.48,3.48,5.78,4.64,9.89,2.13a71.25,71.25,0,0,1,7.31-3.36c10.41-4.87,20.77-4.78,31.13.15,2.07,1,4.2,1.83,6.65,2.89,1.75-11.28,8.92-16.23,18.93-17.44,10.56-1.27,19.3,3.49,27.61,9.37,1.83,1.29,4.18,2.84,6.19,2.71,9.87-.63,19.2,1.53,28.36,4.68,6.39,2.2,11.77,1.68,17-3.26A38.17,38.17,0,0,1,1101,666c6.5,0,6.72-.41,6.36-6.81a14,14,0,0,0-1.31-4.94c-5.59-12-1.92-25.21,9.82-31.5,14-7.5,28.52-8.61,42.3.56,6.8,4.53,13,10.1,19.12,15.52,8.2,7.2,16.72,7.15,24,.18,6.85-6.55,15.69-7,24.2-2.5,1,.55,2.17,1,3.41,1.56.25-16-3.58-30.13-14-42.42-6.42,6.79-13.47,9.59-22.25,7.08a10.32,10.32,0,0,0-5.07.27c-6.07,1.51-10.88-.4-14.75-5.07a24,24,0,0,1-5.36-19.53c1.22-8.44,2-17,3.94-25.28a308.48,308.48,0,0,1,9.39-34.19c4-11.25,12.76-19.07,22.37-25.77,3.42-2.38,4.23-4.86,2.23-8.75a33.72,33.72,0,0,1-3.14-20.3c1-7.67,5.16-13,12.07-16.35-4.15-8-4.41-15.73,1-22.63,5.73-7.25,13.34-7.47,20.71-4.08,2.9-3.42,5.41-6.38,8.25-9.71-3.4-7.67-9.7-14.95-7.49-24.53C1214.26,380,1210.26,374.74,1213.52,355.28Z" transform="translate(-607.25 -308.78)"/><path class="cls-1" d="M1318.58,602.69c-2.64,1.56-4.46,1.08-5.07-2.13-1.56-8.32-3-16.68-4.69-25-1.32-6.42-3-12.76-4.63-19.57,2.5-1.84,4.91-1.39,7.24,2.66a30,30,0,0,1,3.69,20.14c-.79,4.79.75,8.15,3.46,11.53Z" transform="translate(-607.25 -308.78)"/><path class="cls-1" d="M1249.75,584.94c.12-5.59,3.19-7.74,6.41-5.61a80.7,80.7,0,0,1,10.06,8.54c6.46,6,12.81,12.11,19.21,18.17,1,1,2.41,1.76,3.06,2.94a13.91,13.91,0,0,1,2,5.9c0,.55-3.09,1.16-4.72,1.83-1.22.51-3.1.93-3.38,1.81-.4,1.23-.09,3.44.8,4.2a76.11,76.11,0,0,0,8.55,5.82c2,1.26,4.3,2.15,6.07,3.66a8.6,8.6,0,0,1,2.23,4.3c.08.32-2.11,1.06-3,1.85a15.8,15.8,0,0,0-3,3.34c-2.56,4-5.61,4.21-8.62.5a7.44,7.44,0,0,1-1.27-2c-6.38-16.85-18.34-30.16-28.23-44.79C1253.28,591.67,1251.27,587.59,1249.75,584.94Z" transform="translate(-607.25 -308.78)"/><path class="cls-1" d="M1317,617.6c-2,5.55-3.8,11.17-6.08,16.59-.49,1.16-2.68,1.61-4.08,2.39-.33-1.44-1.11-2.94-.92-4.32q1.52-11.21,3.5-22.36c.21-1.16,1.43-2.14,2.19-3.2,1,.89,2.54,1.6,2.94,2.72a61.93,61.93,0,0,1,1.76,7.73Z" transform="translate(-607.25 -308.78)"/><path class="cls-1" d="M903.63,417.58A58,58,0,0,0,876,423.05c-7.45,3.42-12.67,8.59-13.9,17.21-.72,5.09-4.2,6.39-8.62,3.71-6.81-4.15-8.11-12.75-2.3-19.24,8.07-9,18.31-15,29.8-18.57s23.11-2.62,34.6.45a14.25,14.25,0,0,1,3.51,1.41c3.34,2,3.79,4.92.34,6.45-4.86,2.15-10.29,3-15.47,4.4C903.86,418.44,903.74,418,903.63,417.58Z" transform="translate(-607.25 -308.78)"/><path class="cls-1" d="M923.79,378.32c-11.4-2.11-19.5-7-24.8-15.9-1.86-3.12-2.91-7.31.43-10s7.06-.95,9.71,1.86c4.27,4.52,9.64,5.53,15.44,5.82a29.73,29.73,0,0,1,8.35,1.21c5.82,2.06,7,8.79,1.93,12.25C931.36,375.94,927,377,923.79,378.32Z" transform="translate(-607.25 -308.78)"/><path class="cls-1" d="M1097.75,410.76c-2.36-.21-4.72-.52-7.08-.61-4.6-.18-7.11-3.21-5.26-7.38a21.15,21.15,0,0,1,5.92-7.72c8.2-6.54,17.84-10,28.14-11.58a8,8,0,0,1,3.75,0c1.52.53,3.63,1.36,4,2.54s-.67,3.78-1.78,4.3c-8.55,4-14.85,10.18-20,18-1.23,1.88-4.89,2.17-7.43,3.19Z" transform="translate(-607.25 -308.78)"/><path class="cls-1" d="M970.47,390.84c.94-5.23,3.29-10.6,9.07-13.65,4.13-2.18,7.33-.3,8.25,4.28a51.17,51.17,0,0,0,2.18,7.67c1.5,4,.26,6.82-3.59,8.36a31.16,31.16,0,0,1-7.22,2.07C973.64,400.35,970.48,397.38,970.47,390.84Z" transform="translate(-607.25 -308.78)"/><path class="cls-1" d="M994.17,412.09c-4.35.15-6.87-1.8-6.89-5.34,0-4.58,6-11.12,10.56-11.41,3.26-.21,6.38,3,6.52,6.79C1004.54,406.93,999.46,411.9,994.17,412.09Z" transform="translate(-607.25 -308.78)"/><path class="cls-1" d="M646.23,426.13c-.44.8-.91,3-2.05,3.43a4.76,4.76,0,0,1-4.36-1.49A63.22,63.22,0,0,1,634.16,417c-.47-1.21.28-3.81,1.29-4.44s3.42-.22,4.72.55C644.69,415.76,645.53,420.46,646.23,426.13Z" transform="translate(-607.25 -308.78)"/><path class="cls-1" d="M1159.3,341.18c.21-1.37,0-3.32.82-4.39,1.31-1.64,3.45-3.77,5.1-3.66s4.22,2.64,4.37,4.29a18.75,18.75,0,0,1-1.8,9c-.74,1.62-3.24,2.44-5,3.61a42.63,42.63,0,0,1-3-4.95C1159.35,344,1159.48,342.64,1159.3,341.18Z" transform="translate(-607.25 -308.78)"/></svg>