<svg id="Слой_1" data-name="Слой 1" xmlns="http://www.w3.org/2000/svg" viewBox="0 0 368.66 420.78"><defs><style>.cls-1{fill:#b49a62;}</style></defs><path class="cls-1" d="M1020.23,306.7c6.37,9.66,13.43,18.95,19,29.07,13.47,24.64,13.19,24.76,40.68,29.07,7.52,1.18,15,2.57,22.49,4,8.54,1.64,12.71,7.09,11.81,15.59-1.44,13.43-2.78,26.94-5.46,40.16-1.67,8.21.21,13.71,6.18,19.25,8.9,8.26,17.18,17.2,25.53,26,9,9.47,9.09,15.79.32,25.15-8.54,9.13-17.07,18.31-26.22,26.81-5.72,5.32-7.39,10.63-5.9,18.34,2.5,12.91,3.92,26,5.49,39.11,1.19,9.88-3.06,15.83-13.26,17.48-9.92,1.6-19.68,4.57-29.63,5.34-8.14.63-9.32,4.14-9.28,11.22.26,47.23-.07,46.43.31,93.66.07,9.32-2.25,16.24-10.77,20.5h-8.34c-25.44-13-50.84-26-76.39-38.71a9.87,9.87,0,0,0-7.69,0c-25.55,12.74-51,25.76-76.39,38.71h-8.34c-8.53-4.26-10.84-11.18-10.77-20.5.37-47.23,0-46.43.31-93.66,0-7.08-1.14-10.59-9.28-11.22-10-.77-19.72-3.74-29.63-5.34-10.21-1.65-14.45-7.6-13.26-17.48,1.56-13.07,3-26.2,5.49-39.11,1.49-7.71-.18-13-5.91-18.34-9.15-8.5-17.67-17.68-26.21-26.81-8.77-9.36-8.66-15.68.31-25.15,8.6-9.07,17.14-18.24,26.26-26.77,5.42-5.07,7.09-10.19,5.62-17.47-2.33-11.54-3.85-23.26-5.34-34.95-2-15.62,1.92-20.65,17.58-23.37,12.28-2.14,24.69-3.76,36.81-6.61A18.71,18.71,0,0,0,876.94,353c6.51-10.61,11.7-22,18-32.78,2.87-4.9,7.08-9,10.68-13.49H916c14.63,7.54,29.23,15.16,44,22.52a7.53,7.53,0,0,0,5.89,0c14.72-7.36,29.31-15,43.94-22.52ZM811,480.05c10.87,11.37,17.93,20.09,26.34,27.22,10.15,8.61,11.65,18.61,9.28,30.75-2.08,10.67-3,21.57-4.41,32.55,13.83,2.47,26,5.08,38.33,6.71,8.43,1.12,13.81,5,17.57,12.55,5.84,11.69,12.29,23.06,18.69,34.94,12.33-6,24-11.36,35.28-17.28,7.44-3.88,14.27-3.83,21.71,0,11.51,6,23.32,11.39,35.34,17.2,6.62-12.35,12.91-23.5,18.6-34.94,3.75-7.54,9.19-11.38,17.6-12.51,12.59-1.7,25.05-4.39,38.46-6.81-1.78-12.75-3.28-24.72-5.16-36.63-1.51-9.52.06-17.36,7.74-24.32,9.14-8.27,17.19-17.75,27.92-29-8.93-7.87-16.94-15.61-25.65-22.45-10.48-8.22-11.89-18.44-9.48-30.61,2.11-10.7,3-21.63,4.5-32.65-13.21-2.39-25-5.11-37-6.53-9.68-1.15-15.7-5.68-19.85-14.32-5.37-11.2-11.57-22-17.7-33.5-12.67,6.19-24.45,12.85-37,17.64a28,28,0,0,1-18.49,0c-12.49-4.79-24.27-11.44-36.91-17.62C910.58,352,904.38,362.77,899,374c-4.15,8.66-10.22,13.11-19.88,14.28-12.26,1.49-24.36,4.27-37.09,6.6,1.83,13.52,3.35,26.21,5.33,38.83,1.35,8.59-.5,15.62-7.38,21.35C830.4,463,821.07,471.35,811,480.05ZM1032.61,645c-12.52,16.13-14.38,16.5-32.64,7.57-10.27-5-20.39-10.4-30.93-14.77a17.18,17.18,0,0,0-12.15,0c-13,5.67-25.57,12.36-38.4,18.46-8.83,4.21-16.13,2.49-21.23-6.34a55.79,55.79,0,0,0-4.12-5.23v44.51c19-9.45,37.18-17.78,54.62-27.43,10.58-5.85,19.55-5.94,30.16-.08,17.46,9.65,35.64,18,54.69,27.49Z" transform="translate(-778.58 -306.7)"/><path class="cls-1" d="M963.74,383.61c54.82.29,98.54,44.7,98.31,99.86-.22,54.57-45,98.65-100,98.35-54.66-.29-98.57-45-98.31-100C864,427.08,908.57,383.32,963.74,383.61Zm-1,28.95a70.14,70.14,0,1,0,70.34,69.69A69.67,69.67,0,0,0,962.78,412.56Z" transform="translate(-778.58 -306.7)"/><path class="cls-1" d="M949.68,490c14.13-14.58,27-28.07,40.14-41.33,8.09-8.16,16.3-9.07,22.73-3.08,6.82,6.35,6.09,14.91-2.42,23.53q-23.76,24-47.81,47.8c-9.33,9.19-15.77,9.19-25,.25Q925.67,506,914.47,494.38c-7.19-7.44-7.59-16-1.35-22,6-5.71,14.26-5.33,21.26,1.38C939.12,478.36,943.44,483.36,949.68,490Z" transform="translate(-778.58 -306.7)"/></svg>