<svg id="Слой_1" data-name="Слой 1" xmlns="http://www.w3.org/2000/svg" viewBox="0 0 475.01 430.71"><defs><style>.cls-1{fill:#b49a62;stroke:#b49a62;stroke-width:7px;stroke-linecap:round;stroke-linejoin:round;}</style></defs><path class="cls-1" d="M1113.92,681.86q-48.87,0-97.73.08H694.94v-4.26c0-33.11-.22-66.22.13-99.33a104.7,104.7,0,0,0-4.22-29.28c-8.3-30.14-16.37-60.34-24.53-90.51q-12.12-44.81-24.21-89.62c-.74-2.74-1.4-5.51-2.2-8.7,4.8-1.32,9.43-2.62,14.08-3.86l70.08-18.75q61.66-16.5,123.32-33,50.18-13.47,100.33-27,42.07-11.28,84.18-22.4c3.27-.87,6.54-1.73,9.78-2.68,2.11-.62,3.17-.24,3.82,2.18q14,52.33,28.15,104.63,9.74,36.09,19.36,72.22c.53,2,1.37,2.77,3.46,2.74,5.82-.1,11.63,0,17.45,0ZM904.48,662.74h84.08c17.66,0,35.33-.09,53,0,6.53.05,11.19-2.5,14-8.43,1.62-3.44,3.5-6.79,4.82-10.34,2.88-7.8,8.32-12.69,16-15.54,4.94-1.84,9.68-4.21,14.48-6.4,2.86-1.31,4.06-3.41,4.05-6.77-.13-29.72-.26-59.45.06-89.17.08-6.69-2.54-10.82-8-13.8a58.84,58.84,0,0,0-5.34-2.78c-6.8-2.89-13.65-5.66-20.47-8.52A26.33,26.33,0,0,1,1047,487.19c-3.53-7.67-7-15.35-11.06-22.77-3.55-6.57-9.53-10-17-10.74-2.52-.25-5.07-.25-7.61-.25H905.09c-36.49,0-73,.16-109.47-.09-11.79-.07-20.12,4.6-25.19,15.14-2.38,4.95-4.88,9.87-6.78,15C760,493.3,753.13,499.34,743.43,503a247.26,247.26,0,0,0-23.81,11c-4,2.06-5.59,5.78-5.57,10.58q.26,45.06,0,90.11c0,4.09,1.53,6.37,4.92,7.88,4.53,2,9,4.2,13.65,5.91,7.71,2.84,13.18,7.73,16,15.56,1.11,3.06,2.78,5.93,4.06,8.93,3,7.08,8.26,9.9,16,9.87C814,662.65,859.21,662.74,904.48,662.74Zm168.79-228.69c-.21-1.26-.3-2.2-.54-3.09-7.66-28.78-15.42-57.54-22.94-86.35-1.46-5.58-4.62-9-10-10.18-5.56-1.21-11.2-2.63-16.83-2.79-15.23-.43-27.4-5.81-35.8-19.05-2.62-4.14-6.28-7.69-9.75-11.22-6.43-6.51-14.38-7.71-22.89-5.48-19.61,5.14-39.17,10.46-58.75,15.71L819.87,332c-25.6,6.87-51.15,13.92-76.82,20.5-11.19,2.87-18.83,8.79-21.18,20.42A165,165,0,0,0,719,390.06c-.9,9.72-5.46,17.18-13,23-3.6,2.77-7.55,5.11-11,8a145.76,145.76,0,0,0-11.85,11.33c-2.11,2.24-2.47,5.16-1.6,8.33,3.51,12.61,6.84,25.28,10.26,37.92.82,3.06,1.69,6.11,2.54,9.17l.77-.14V434.1h93.28c-.12-2.33-.17-4.23-.32-6.11A96.16,96.16,0,0,1,798,376.66c22.49-45.23,77-59.64,118.56-31,28.72,19.83,42.64,48,44.23,82.56.08,1.87,0,3.74,0,5.78Zm-131.95,0a21.9,21.9,0,0,0,.18-3.23c-.6-6-.75-12.07-2-17.92-5-23.07-17.1-41.38-37.47-53.81-24.91-15.2-55.49-11.43-75.39,9.8-16.44,17.54-21.22,38.9-19,62.28.26,2.62,1.6,3.09,4,3.08q63.15-.11,126.3,0C939,434.22,940,434.13,941.32,434.07Zm-227,60.42c9.14-4.1,18-7.94,26.71-12.14,1.6-.77,2.77-2.86,3.65-4.59,3.94-7.71,7.7-15.5,11.5-23.28.12-.24,0-.58,0-.81H714.33Zm338.18-40.89c4.48,9.09,8.72,18,13.31,26.76.83,1.58,2.93,2.73,4.69,3.55,5,2.3,10.09,4.3,15.14,6.47,2.94,1.27,5.85,2.62,8.95,4V453.6ZM704,363.49c-1.11.19-2.24.3-3.33.59-11.33,3-22.62,6.18-34,9-3,.74-3.11,1.86-2.37,4.4,2,6.69,3.61,13.46,5.42,20.19,1.36,5.06,2.77,10.11,4.31,15.73,8.07-6.49,15.73-12.58,23.27-18.8a6,6,0,0,0,1.59-3.34C700.59,382.14,702.22,373,704,363.49Zm337.36-48.85c-3.55-13.28-7-26.18-10.51-39.35l-40.57,11c6.56,7.6,12.69,14.83,19,21.9a7.91,7.91,0,0,0,4.35,2.24C1022.65,312,1031.72,313.22,1041.32,314.64Zm-327,347.91H735.7c-2.16-4.58-4.16-8.85-6.21-13.09a3.51,3.51,0,0,0-1.39-1.65c-4.48-2-9-3.89-13.78-5.93ZM1094.61,642c-3.9,1.56-7.51,3-11.07,4.47-1.25.53-2.9,1-3.46,2.07-2.44,4.48-4.55,9.15-6.87,13.94h21.4Z" transform="translate(-639.41 -251.73)"/><path class="cls-1" d="M990.33,561.36c-1,29-12.25,56.27-38.31,75.94-33.12,25-77.55,20.79-106.36-10-21.28-22.72-29.47-50.12-26.25-80.87C822,521.88,832.1,500.73,850.5,484c35.79-32.45,88.37-27.32,118.6,11.45C983.47,513.91,990.08,535.05,990.33,561.36Zm-19.21-2.15c-.47-21-6.15-39-19.11-54.32-23.52-27.86-61.94-30.64-89-6.23-12.93,11.66-20.51,26.45-23.55,43.5-4.36,24.44.27,47,15.58,66.73,21.77,28.11,58.78,33.53,86.08,12.54C961.82,605.54,970.26,583.54,971.12,559.21Z" transform="translate(-639.41 -251.73)"/><path class="cls-1" d="M733,562.75a33.38,33.38,0,1,1,33.13,33.48A33.42,33.42,0,0,1,733,562.75Zm33.49-14.1a14.19,14.19,0,1,0,14.07,14.23A14.33,14.33,0,0,0,766.53,548.65Z" transform="translate(-639.41 -251.73)"/><path class="cls-1" d="M1075.9,563.05a33.39,33.39,0,1,1-33-33.6A33.46,33.46,0,0,1,1075.9,563.05Zm-33.34,14A14.19,14.19,0,1,0,1028.33,563,14.33,14.33,0,0,0,1042.56,577Z" transform="translate(-639.41 -251.73)"/><path class="cls-1" d="M975.52,394.23a33.42,33.42,0,1,1,33,33.59A33.55,33.55,0,0,1,975.52,394.23Zm19.31.27a13.9,13.9,0,0,0,14.06,14,14.13,14.13,0,1,0-14.06-14Z" transform="translate(-639.41 -251.73)"/></svg>