<svg id="Слой_1" data-name="Слой 1" xmlns="http://www.w3.org/2000/svg" viewBox="0 0 754.69 149.12"><defs><style>.cls-1,.cls-2{fill:#fff;}.cls-1{fill-rule:evenodd;}</style></defs><polygon class="cls-1" points="93.11 122.17 93.11 20.89 0 0 0 72.38 6.62 75.05 6.62 148.76 93.11 122.17"/><polygon class="cls-1" points="102.01 122.51 102.01 21.25 196.19 0.36 196.19 72.74 189.57 75.41 189.57 149.12 102.01 122.51"/><rect class="cls-2" x="457.27" y="25.78" width="47.72" height="106"/><polygon class="cls-1" points="239.4 51.37 239.4 25.78 340.18 25.78 340.18 51.37 311.86 51.37 311.86 131.79 268.88 131.79 268.88 51.37 239.4 51.37"/><polygon class="cls-1" points="516.61 25.78 563.16 25.78 563.16 62.01 589.1 62.01 589.1 25.78 635.65 25.78 635.65 131.79 589.1 131.79 589.1 92.26 563.16 92.26 563.16 131.79 516.61 131.79 516.61 25.78"/><path class="cls-1" d="M1134.8,528.41q0-21.18,11.73-29.75c16.22-11.87,67.69-11.76,83.75,0q11.7,8.56,11.72,29.75v32.24q0,21.17-11.72,29.75c-16.06,11.76-67.53,11.88-83.75,0q-11.71-8.56-11.73-29.75V528.41Zm42.44,39c0,4.34.71,7.13,2.16,8.29,3.08,2.45,15.31,2.36,18-.12,1.38-1.25,2.11-4.26,2.11-9v-44c0-4.63-.71-7.61-2.16-8.85-2.79-2.4-15-2.61-18-.14-1.39,1.14-2.12,3.86-2.12,8.18Z" transform="translate(-487.31 -465.73)"/><path class="cls-1" d="M815.41,597.52l34.35-106H903l33.46,106H897.85l-3.21-13.28H856.86l-4.28,13.28Zm46.81-40.38h28.13l-14.53-42Z" transform="translate(-487.31 -465.73)"/></svg>