<svg id="Слой_1" data-name="Слой 1" xmlns="http://www.w3.org/2000/svg" viewBox="0 0 433 413.97"><defs><style>.cls-1{fill:#fafafa;}</style></defs><path class="cls-1" d="M1089.64,724.07l-28.66-.34c-15.83-4.09-34-9.52-49.76-22.27-36.67-29.76-49.27-78.7-31.36-121.8,17.25-41.52,61-68.21,103.84-63.49,49.46,5.47,85.55,38.06,94.42,85.17.41.72.66,1.2.9,1.68l1.06,2.17V634l-1,2.14c-.26.55-.56,1.1-.87,1.65-4.85,29.2-19.82,52.47-43.35,67.35-9.64,6.1-20.26,9.85-30.52,13.48-4.3,1.51-8.59,3-12.78,4.71ZM1065,703h20.62c3.86-1.51,7.79-2.9,11.71-4.29,9.59-3.38,18.65-6.58,26.28-11.4,18.78-11.89,30.21-30,34-53.85A15.33,15.33,0,0,1,1159,629V610.27a15.39,15.39,0,0,1-1.45-4.27c-6.93-38.61-35.4-64.37-76.16-68.86-33.26-3.75-68.54,18.09-82.06,50.61-14.51,34.94-4.63,73.14,25.19,97.33C1036.55,694.85,1051.6,699.49,1065,703Zm113.33-100.73a.07.07,0,0,0,0,0A.07.07,0,0,1,1178.29,602.26ZM1105.53,686h-58.74V649.37h-37.18V590.54h36.89V553.62h58.84v36.76h36.35v58.8h-36.16Zm-37.66-21.09h16.58V628.1h36.16V611.47h-36.36V574.71h-16.66v36.92h-36.9v16.65h37.18Z" transform="translate(-747.07 -310.1)"/><path class="cls-1" d="M961.42,667.21H765.8V461.86L748,460.79l-.58-15.45c-.79-17.58-1.69-37.5,13.21-56,18.29-22.67,30.63-40.65,22.75-65.54l-4.33-13.72h325.82v10.55c0,1.16,0,2.3.08,3.4a52.61,52.61,0,0,1-.24,9.14c-2,14.65,2,27.54,12.2,39.41a61.4,61.4,0,0,1,6,8.83,37.17,37.17,0,0,0,4.32,6.31c16.81,17.46,15.78,38.07,14.87,56.26-.12,2.41-.24,4.83-.32,7.27l-.33,9.73-17,.77V505.6l-59.14-9v-34H824.5V609H952.58ZM786.88,646.12h150L934.45,630h-131V441.51h283v37l17,2.57V441.59l17.83-.78c.81-17.2.49-28.49-9.1-38.45a54,54,0,0,1-7.23-10.11,44,44,0,0,0-3.91-5.88c-14-16.26-19.83-34.82-17.25-55.18H806.46c3.45,30.67-15.25,53.88-29.39,71.41-9.19,11.38-9.34,23.43-8.72,38.29L786.88,442Z" transform="translate(-747.07 -310.1)"/></svg>