<svg id="Слой_1" data-name="Слой 1" xmlns="http://www.w3.org/2000/svg" viewBox="0 0 413.46 413.46"><defs><style>.cls-1{fill:#fafafa;}</style></defs><path class="cls-1" d="M1006.1,310.36c24.94,12.75,49.94,25.38,74.76,38.38a34.85,34.85,0,0,1,11.08,9c23.51,30.16,46.74,60.54,70,90.84-33.3,29.82-86.12,27.32-115-7.12-11.18-13.34-23.71-22-39.69-27.29-9-2.95-17.51-7.21-26.47-10.23a58,58,0,0,0-16.77-3.3,421,421,0,0,0-52,1.6c13.1,7.3,26.25,14.51,39.28,21.93,15.2,8.67,24,21.36,24.15,39.35.32,30.74-29.23,52.9-58,42-21.66-8.2-43.29-17.36-63.16-29.09-12.54-7.41-22.09-20.09-32.45-30.91-4.65-4.86-9.43-6.67-16.08-6.52-16.52.39-33.06,0-49.6,0V413.26c12.84.16,25.87,1.79,38.47.14,22.78-3,39.94,4.25,53.72,22.42,5.63,7.43,12.57,14.92,20.6,19.27,17.94,9.72,36.87,17.62,55.57,25.87a18.76,18.76,0,0,0,10.61.88c7.88-1.56,12.92-6.52,14.29-14.73,1.5-8.94-2-15.58-9.68-19.94-14.33-8.15-28.85-16-43.14-24.18-9.38-5.4-13.43-13.85-12.5-24.62.9-10.49,6.58-20.51,16.11-21,27.86-1.5,56.29-3.14,83.67.87,20.24,3,39.27,14.52,58.68,22.64,3.69,1.55,7,4.59,9.83,7.56,7.37,7.72,13.67,16.61,21.7,23.52,13.72,11.82,36.53,14.92,48.57,7.73-12.66-16.51-25.82-32.61-37.76-49.57a79.94,79.94,0,0,0-34.69-28.42c-15.38-6.64-30-15-45.19-22.11a33.91,33.91,0,0,0-13.86-3.35q-117.49-.3-235-.14V310.36Z" transform="translate(-756.18 -310.36)"/><path class="cls-1" d="M1169.64,620.91H1039.86c0,10.92.82,21.56-.15,32-3.33,36.2-27.67,62.43-63.49,69.41a14.84,14.84,0,0,0-3.2,1.47H952.81c-11.16-4.52-23.37-7.43-33.26-13.88-22.78-14.85-33.58-37.11-34-64.3-.13-7.9,0-15.81,0-24.73H756.18V595.19H910.81V618c0,9.18-.26,18.37.08,27.54,1.12,30.35,23.59,52.74,52.48,52.54,28.4-.19,50.6-22.56,51.52-52.54.51-16.45.09-32.93.09-50.35h154.66Z" transform="translate(-756.18 -310.36)"/><path class="cls-1" d="M948.89,568H925V544.05h23.93Z" transform="translate(-756.18 -310.36)"/><path class="cls-1" d="M989.68,541.83V518h24.21v23.8Z" transform="translate(-756.18 -310.36)"/><path class="cls-1" d="M963.93,619.75V595.62h23.85v24.13Z" transform="translate(-756.18 -310.36)"/><path class="cls-1" d="M975,671.84H951V647.09h24Z" transform="translate(-756.18 -310.36)"/></svg>