<?xml version="1.0" encoding="utf-8"?>
<!-- Generator: Adobe Illustrator 22.1.0, SVG Export Plug-In . SVG Version: 6.00 Build 0)  -->
<svg fill="#fff" version="1.1" baseProfile="basic" id="Layer_1"
	 xmlns="http://www.w3.org/2000/svg" xmlns:xlink="http://www.w3.org/1999/xlink" x="0px" y="0px" width="90px" height="90px"
	 viewBox="0 0 90 90" xml:space="preserve">
<path d="M65.324,11.18H2.317C1.043,11.18,0,12.222,0,13.497v63.007c0,1.274,1.043,2.317,2.317,2.317h63.007
	c1.274,0,2.317-1.043,2.317-2.317V13.497C67.641,12.222,66.598,11.18,65.324,11.18z M56.818,57.502
	c-0.835,1.901-2.356,5.386-2.96,6.926c-0.127,0.324-0.316,0.621-0.579,0.849c-6.515,5.648-19.478-1.234-29.4-11.156
	c-9.922-9.922-16.803-22.885-11.156-29.4c0.228-0.263,0.525-0.452,0.849-0.58c1.54-0.604,5.025-2.125,6.926-2.96
	c0.742-0.326,1.608-0.046,2.022,0.652l5.801,9.776c0.287,0.484,0.3,1.082,0.034,1.578l-3.597,6.7
	c-0.335,0.624-0.221,1.393,0.279,1.894l5.591,5.591l5.591,5.591c0.501,0.501,1.27,0.614,1.894,0.279l6.7-3.597
	c0.496-0.266,1.094-0.253,1.578,0.034l9.776,5.801C56.864,55.894,57.144,56.76,56.818,57.502z"/>
<path d="M89.318,43.819L64.91,29.727c-0.909-0.525-2.045,0.131-2.045,1.181v28.185c0,1.05,1.136,1.705,2.045,1.181l24.409-14.092
	C90.227,45.656,90.227,44.344,89.318,43.819z"/>
<g>
</g>
<g>
</g>
<g>
</g>
<g>
</g>
<g>
</g>
<g>
</g>
</svg>
