<svg id="Слой_1" data-name="Слой 1" xmlns="http://www.w3.org/2000/svg" viewBox="0 0 505.85 501.81"><defs><style>.cls-1{fill:#fafafa;}</style></defs><path class="cls-1" d="M914.7,289c28.06,0,56,6.68,83.08,19.84,54.84,26.68,94.5,92.95,94.65,152.9-22.76,2.67-36.63,20.6-43.6,29.61-17.93,23.28-36.5,46.76-54.46,69.46-15.06,19.05-30.64,38.75-45.84,58.34-5,6.46-8.57,13.29-12,19.91l-.2.39a136.34,136.34,0,0,1-22.72,1.86c-56.51,0-113.19-31.28-144.41-79.71C726,494.72,731.52,407.85,782.5,350.35,817.64,310.78,864.59,289,914.7,289m0-22.8c-55.73,0-109,23.69-149.25,69C707.84,400.2,701.23,498.32,750,574c38.72,60.06,105.16,90.14,163.57,90.14a153,153,0,0,0,37.77-4.56c5.78-10.11,9.5-19.08,15.2-26.45,33.22-42.79,67.27-84.9,100.33-127.84,9.09-11.74,18.43-21.05,31.32-21.05a35.35,35.35,0,0,1,14.82,3.64c13.22-75.17-34.51-165.08-105.27-199.51-30.58-14.87-62.2-22.14-93.06-22.14Z" transform="translate(-717.41 -266.18)"/><path class="cls-1" d="M1097.88,528.79c30.46,38.51,62.49,79.08,93.75,119.38-2.26-.09-4.59-.16-7-.16h-22.8v46.22c0,17.24,0,34.1,0,50.94l-65.4,0-62.27,0c0-16.66,0-33.35,0-50.54V648h-22.81c-2.45,0-4.86,0-7.22.12,27.69-35.69,57.88-74.09,93.77-119.29m0-28.7c-4.41,0-8.83,3.18-13.93,9.6q-54.48,68.58-108.19,137.78c-3,3.84-4.21,11.43-2.46,15.74,1.48,3.67,8.23,6.52,13,7.23a66.32,66.32,0,0,0,9.82.62c4.87,0,9.91-.3,15.2-.3,0,26.91,0,52.17,0,77.43,0,15.93,4,19.76,20.14,19.77l64.93,0,67.12,0c17,0,21.06-4.19,21.08-21.47,0-24.83,0-49.66,0-75.69,4.89,0,9.44.38,13.75.38a40.84,40.84,0,0,0,8.12-.69c5.85-1.18,13.5-3.69,16-8.08,2.1-3.7-.46-12.21-3.73-16.44-35.23-45.59-70.94-90.81-106.69-136-5.21-6.59-9.71-9.9-14.22-9.9Z" transform="translate(-717.41 -266.18)"/><path class="cls-1" d="M879.47,384.91H948c2.69.41,5.39.77,8.06,1.27a48.9,48.9,0,0,1,28.14,16.27,44.43,44.43,0,0,1,8,13.23,52.8,52.8,0,0,1,3.4,16.68,57.39,57.39,0,0,1-2.68,21.15,46,46,0,0,1-12.18,18.93,48.44,48.44,0,0,1-20.88,11.75,65.14,65.14,0,0,1-17.35,2.17q-18.77,0-37.53,0c-1,0-1.28.28-1.26,1.25.05,3.55,0,7.09,0,10.64,0,1.73,0,1.73,1.72,1.73h56c3.17,0,4.57,1.37,4.58,4.5,0,4.5,0,9,0,13.5a5.91,5.91,0,0,1-.51,2.35c-.82,1.81-2.5,2-4.22,2H905.11c-1.44,0-1.44,0-1.44,1.48,0,6.27,0,12.55,0,18.82,0,2.12-.13,4.1-2.09,5.42H878.83c-1.9-1.26-2.11-3.15-2.09-5.22,0-6.27,0-12.54,0-18.82,0-1.78.23-1.68-1.63-1.68-7.84,0-15.67,0-23.5,0-3.14,0-4.55-1.4-4.56-4.53,0-4.47,0-8.94,0-13.4a6.15,6.15,0,0,1,.55-2.55c.78-1.63,2.33-1.88,4-1.88,7.94,0,15.88,0,23.81,0,1.12,0,1.37-.33,1.36-1.38-.06-3.65-.06-7.31,0-11,0-1-.25-1.32-1.29-1.31-8,0-16,0-24,0-2.88,0-4.38-1.44-4.39-4.28q0-8.13,0-16.26a5.54,5.54,0,0,1,.55-2.34c.81-1.66,2.39-1.95,4.05-2H875.3c1.45,0,1.45,0,1.45-1.44q0-35.19,0-70.39C876.74,387.53,877.34,385.81,879.47,384.91Zm24.2,50.7c0,8.19,0,16.38,0,24.56,0,1.06.27,1.39,1.36,1.39q17.65-.06,35.3,0a32.94,32.94,0,0,0,10.17-1.36c7.65-2.43,13.11-7.26,16-14.83a28.65,28.65,0,0,0,1.21-14.77,23.37,23.37,0,0,0-11.56-17.08c-5-3-10.44-3.84-16.12-3.83H905.1c-1.43,0-1.43,0-1.43,1.49Z" transform="translate(-717.41 -266.18)"/></svg>