<svg id="Слой_1" data-name="Слой 1" xmlns="http://www.w3.org/2000/svg" viewBox="0 0 434.24 411.99"><defs><style>.cls-1{fill:#fafafa;}</style></defs><path class="cls-1" d="M1021.92,335.69l.09.16c7.5,13.88,14.58,27,22.72,40a38,38,0,0,0,3.24,4.46,162.27,162.27,0,0,0-72.5-23.63,35.63,35.63,0,0,0,3.56-1.28c14.47-6.11,28.21-12.7,42.76-19.69l.13-.06m-118.18,0,.1,0c14.56,7,28.31,13.57,42.79,19.67,1.1.46,2.23.87,3.4,1.23A161.14,161.14,0,0,0,878.94,379c.77-1,1.48-2,2.13-3.08,8.11-13.09,15.49-26.82,22.63-40.09l0-.08M1067,394.09a43,43,0,0,0,5.58,1.79c14.62,3.56,29.08,6.15,44.4,8.9l.74.13c-1.3,11.61-2.56,22.63-4.47,33.54a80.37,80.37,0,0,0-1.38,15.79A161.51,161.51,0,0,0,1067,394.09M857,394.81a158.32,158.32,0,0,0-43.15,59.76c0-.48,0-.95-.09-1.43-1.39-16-3.42-31.5-5.57-47.89l0-.15.13,0c14.78-2.71,30.06-5.51,45-9.16q1.86-.46,3.72-1.11m-51.27,85.32a168.09,168.09,0,0,0-.29,72.77,58.78,58.78,0,0,0-10.32-11.32c-8.19-7-15.72-15.32-23.65-24.15l0,0c10.67-11.19,21.7-22.76,32.12-34.63.75-.84,1.45-1.73,2.12-2.65m315.11,1.49a56.4,56.4,0,0,0,9.13,9.87c8.54,7.38,16.36,16.11,24.63,25.35l-.38.42c-9.33,10.16-18.14,19.75-27.57,28.61a53.17,53.17,0,0,0-5.87,6.44,161.34,161.34,0,0,0,4-34.56,158.9,158.9,0,0,0-3.91-36.13M814,580.15a158.1,158.1,0,0,0,43.26,59.35c-1.32-.46-2.65-.86-4-1.19-14.61-3.56-29.06-6.18-44.37-8.95l-.79-.14c1.29-11.61,2.54-22.61,4.51-33.47a76.57,76.57,0,0,0,1.37-15.6m297.61.14a60.33,60.33,0,0,0,.77,8.59c2.11,13.23,3.95,26.83,5.72,40.08l-.77.14c-15,2.75-30.62,5.6-45.92,9.17-1.08.26-2.15.56-3.22.91a162.5,162.5,0,0,0,43.42-58.89m-64.72,74.36c-.63.86-1.22,1.74-1.76,2.64-8,13.19-15.08,26.5-22.63,40.59l-.36.67-.1,0c-12.71-5.81-24.72-11.29-36.39-17.49a58.35,58.35,0,0,0-8.15-3.58,160,160,0,0,0,69.39-22.79m-167.83.48a162.91,162.91,0,0,0,69.65,22.28,57.52,57.52,0,0,0-8.32,3.66c-11.46,6.11-23.36,11.58-35.95,17.37l-.44.2-.16-.3c-7.47-13.9-14.52-27-22.64-40.12-.65-1.05-1.37-2.08-2.14-3.09m150.84-344c-20,9.42-38.78,18.89-58.16,27.06a25.27,25.27,0,0,1-17.83,0c-19.39-8.16-38.24-17.63-58.18-27C885.32,330.07,876,348.5,865.12,366c-3.31,5.34-10.21,10.19-16.35,11.69-20,4.9-40.35,8.15-61.52,12.21,2.78,22.18,5.92,43.47,7.78,64.86.44,5.09-2.11,11.72-5.55,15.64-14,15.88-28.79,31-43.69,46.77,12.51,13.25,23.72,27.25,37.11,38.68,12.32,10.52,13.91,21.94,11.27,36.55-3.11,17.16-4.53,34.62-6.69,52.09,21.71,4.13,41.73,7.26,61.35,12C855,658,862,662.8,865.26,668.11c10.85,17.5,20.18,35.93,30.63,55,18.49-8.72,36.29-16.37,53.32-25.45,4.92-2.62,9.38-3.93,13.85-3.93s8.89,1.3,13.79,3.9c17.3,9.17,35.37,16.89,53.45,25.37,10.81-19.85,20.23-38.29,30.9-56a25.3,25.3,0,0,1,14.47-10.43c20.45-4.78,41.22-8.19,62.17-12.17,0-3.83.33-6.84-.06-9.75-2.17-16.25-4.29-32.52-6.87-48.71-1.67-10.44.24-18.57,8.55-26.38,14.14-13.28,26.88-28,40.57-42.58-12.72-13.55-24.19-27.88-37.84-39.67-12-10.38-12.89-21.59-10.43-35.59,3-17.17,4.48-34.61,6.64-52.09-21.7-4.09-41.73-7.19-61.35-12-6.15-1.5-13.07-6.34-16.4-11.67-10.88-17.48-20.27-35.88-30.75-54.89Zm-66.45,348.2h-1c-78.12-.56-142.48-61.91-142.1-142.74C820.69,437,884.41,375,962.5,375h1c78.91.54,142.93,64.66,142.44,142.65s-64.63,141.66-142.5,141.66Z" transform="translate(-745.79 -311.09)"/><path class="cls-1" d="M1017.39,458.33l-60.47,73.8c-15-12.32-28.65-23.51-42.78-35.15-5.94,7.26-11.26,13.76-17.08,20.83,21.33,17.7,41.91,34.77,63.67,52.85,26.27-32.27,51.72-63.61,77.74-95.5-7.75-6.2-14.26-11.39-21.08-16.83Z" transform="translate(-745.79 -311.09)"/></svg>